<svg width="71" height="41" viewBox="0 0 71 41" fill="none" xmlns="http://www.w3.org/2000/svg">
<path d="M16.656 40.784C13.9307 40.784 11.5787 40.4107 9.6 39.664C7.62133 38.88 5.97867 37.816 4.672 36.472C3.40267 35.0907 2.45067 33.4667 1.816 31.6C1.21867 29.696 0.92 27.6053 0.92 25.328V1.192H9.656V24.6C9.656 26.168 9.824 27.512 10.16 28.632C10.5333 29.7147 11.0187 30.6107 11.616 31.32C12.2507 31.992 12.9973 32.4773 13.856 32.776C14.752 33.0747 15.7227 33.224 16.768 33.224C18.896 33.224 20.6133 32.5707 21.92 31.264C23.264 29.9573 23.936 27.736 23.936 24.6V1.192H32.672V25.328C32.672 27.6053 32.3547 29.696 31.72 31.6C31.0853 33.504 30.1147 35.1467 28.808 36.528C27.5013 37.872 25.84 38.9173 23.824 39.664C21.808 40.4107 19.4187 40.784 16.656 40.784ZM52.7218 0.743998C58.5084 0.743998 62.9511 1.77066 66.0498 3.824C69.1484 5.84 70.6978 9.16267 70.6978 13.792C70.6978 18.4587 69.1298 21.8373 65.9938 23.928C62.8578 25.9813 58.3778 27.008 52.5538 27.008H49.8098V40H41.0738V1.752C42.9778 1.37867 44.9938 1.11733 47.1218 0.967999C49.2498 0.818665 51.1164 0.743998 52.7218 0.743998ZM53.2818 8.192C52.6471 8.192 52.0124 8.21067 51.3777 8.248C50.7804 8.28533 50.2578 8.32267 49.8098 8.36V19.56H52.5538C55.5778 19.56 57.8551 19.1493 59.3858 18.328C60.9164 17.5067 61.6818 15.976 61.6818 13.736C61.6818 12.6533 61.4764 11.7573 61.0658 11.048C60.6924 10.3387 60.1324 9.77867 59.3858 9.368C58.6764 8.92 57.7991 8.62133 56.7538 8.472C55.7084 8.28533 54.5511 8.192 53.2818 8.192Z" fill="#23C7A8"/>
</svg>
