<svg width="29" height="41" viewBox="0 0 29 41" fill="none" xmlns="http://www.w3.org/2000/svg">
<path d="M13.064 33.336C14.296 33.336 15.304 33.2427 16.088 33.056C16.9093 32.832 17.5627 32.552 18.048 32.216C18.5333 31.8427 18.8693 31.4133 19.056 30.928C19.2427 30.4427 19.336 29.9013 19.336 29.304C19.336 28.0347 18.7387 26.9893 17.544 26.168C16.3493 25.3093 14.296 24.3947 11.384 23.424C10.1147 22.976 8.84533 22.472 7.576 21.912C6.30667 21.3147 5.168 20.5867 4.16 19.728C3.152 18.832 2.33067 17.768 1.696 16.536C1.06133 15.2667 0.744 13.736 0.744 11.944C0.744 10.152 1.08 8.54667 1.752 7.128C2.424 5.672 3.376 4.44 4.608 3.432C5.84 2.424 7.33333 1.65867 9.088 1.136C10.8427 0.575998 12.8213 0.295997 15.024 0.295997C17.6373 0.295997 19.896 0.575998 21.8 1.136C23.704 1.696 25.272 2.312 26.504 2.984L23.984 9.872C22.9013 9.312 21.688 8.82667 20.344 8.416C19.0373 7.968 17.4507 7.744 15.584 7.744C13.4933 7.744 11.9813 8.04267 11.048 8.64C10.152 9.2 9.704 10.0773 9.704 11.272C9.704 11.9813 9.872 12.5787 10.208 13.064C10.544 13.5493 11.0107 13.9973 11.608 14.408C12.2427 14.7813 12.952 15.136 13.736 15.472C14.5573 15.7707 15.4533 16.088 16.424 16.424C18.44 17.1707 20.1947 17.9173 21.688 18.664C23.1813 19.3733 24.4133 20.2133 25.384 21.184C26.392 22.1547 27.1387 23.2933 27.624 24.6C28.1093 25.9067 28.352 27.4933 28.352 29.36C28.352 32.9813 27.0827 35.8 24.544 37.816C22.0053 39.7947 18.1787 40.784 13.064 40.784C11.3467 40.784 9.79733 40.672 8.416 40.448C7.03467 40.2613 5.80267 40.0187 4.72 39.72C3.67467 39.4213 2.76 39.104 1.976 38.768C1.22933 38.432 0.594667 38.1147 0.072 37.816L2.536 30.872C3.69333 31.5067 5.112 32.0853 6.792 32.608C8.50933 33.0933 10.6 33.336 13.064 33.336Z" fill="#23C7A8"/>
</svg>
